# This file uses centimeters as units for non-parametric coordinates.

mtllib court.mtl
g default
v -250.000002 0.000004 950.000000
v -500.000002 0.000004 950.000000
v -250.000002 50.000004 950.000000
v -500.000002 50.000004 950.000000
v -500.000002 0.000004 550.000000
v -500.000002 50.000004 550.000000
v -250.000002 0.000004 550.000000
v -250.000002 50.000004 550.000000
vt 1.000000 -0.000000
vt -0.000000 1.000000
vt 0.004378 0.809684
vt 1.000000 -0.000000
vt 0.995550 0.809798
vt 1.000000 -0.000000
vt 0.995622 0.190316
vt 1.000000 0.000000
vt 0.000000 0.000000
vt -0.000000 1.000000
vt -0.000000 0.000000
vt 1.000000 1.000000
vt 0.000000 0.000000
vt 1.000000 0.000000
vt -0.000000 -0.000000
vt 0.000000 0.000000
vt 0.000000 1.000000
vt 1.000000 1.000000
vt 1.000000 1.000000
vt 0.004450 0.190202
vt -0.000000 1.000000
vt 1.000000 1.000000
vt -0.000000 1.000000
vt 1.000000 1.000000
vn 0.000000 0.000000 1.000000
vn 0.000000 0.000000 1.000000
vn 0.000000 0.000000 1.000000
vn 0.000000 0.000000 1.000000
vn -1.000000 0.000000 0.000000
vn -1.000000 0.000000 0.000000
vn -1.000000 0.000000 0.000000
vn -1.000000 0.000000 0.000000
vn 0.000000 0.000000 -1.000000
vn 0.000000 0.000000 -1.000000
vn 0.000000 0.000000 -1.000000
vn 0.000000 0.000000 -1.000000
vn 1.000000 0.000000 0.000000
vn 1.000000 0.000000 0.000000
vn 1.000000 0.000000 0.000000
vn 1.000000 0.000000 0.000000
vn 0.000000 1.000000 0.000000
vn 0.000000 1.000000 0.000000
vn 0.000000 1.000000 0.000000
vn 0.000000 1.000000 0.000000
vn 0.000000 -1.000000 0.000000
vn 0.000000 -1.000000 0.000000
vn 0.000000 -1.000000 0.000000
vn 0.000000 -1.000000 0.000000
s off
g court
usemtl blinn15SG
f 1/14/1 3/19/2 4/23/3 2/11/4
f 2/4/5 4/24/6 6/21/7 5/9/8
f 5/6/9 6/22/10 8/17/11 7/13/12
f 7/8/13 8/18/14 3/2/15 1/15/16
f 3/20/17 8/7/18 6/5/19 4/3/20
f 7/16/21 1/1/22 2/12/23 5/10/24
